<?xml version="1.0" standalone="no"?><!DOCTYPE svg PUBLIC "-//W3C//DTD SVG 1.1//EN" "http://www.w3.org/Graphics/SVG/1.1/DTD/svg11.dtd"><svg t="1625543363560" class="icon" viewBox="0 0 1057 1024" version="1.1" xmlns="http://www.w3.org/2000/svg" p-id="14182" xmlns:xlink="http://www.w3.org/1999/xlink" width="206.4453125" height="200"><defs><style type="text/css"></style></defs><path d="M940.322445 1024H113.583368c-62.629062 0-113.56973-52.768258-113.569729-117.634072V309.725915c0-64.865814 50.954306-117.634072 113.569729-117.634072h684.93717v-114.565357a23.867783 23.867783 0 0 1 5.455494-15.207187C845.315031 12.319704 906.430194-9.965986 963.467375 4.191019c48.076534 11.933891 77.045203 45.74431 90.015638 64.852175a23.867783 23.867783 0 0 1 4.09162 13.420514v720.520624a23.758673 23.758673 0 0 1-4.487144 13.925146 23.854144 23.854144 0 0 1 0.722853 5.810101v83.646349c0.081832 64.865814-50.872474 117.634072-113.487897 117.634072z m-826.739077-784.227146c-36.306307 0-65.834164 31.369086-65.834164 69.898506v596.694568c0 38.543059 29.541496 69.898507 65.834164 69.898507h826.739077c36.306307 0 65.834164-31.369086 65.834164-69.898507v-76.226879c-23.485898-32.091939-60.378671-48.894858-95.68935-43.084757-39.552326 6.492037-61.810738 38.474866-67.71631 48.11745a23.867783 23.867783 0 0 1-44.230411-12.452163V239.827409z m810.795398 498.359303c30.35982 0 60.255922 10.269966 85.542134 28.84592V90.224147c-10.488186-13.638733-29.500579-32.596572-57.923699-39.647797-36.70183-9.097035-76.554208 4.637169-105.741097 35.978977v676.753931a136.046361 136.046361 0 0 1 56.464354-23.349511 133.386809 133.386809 0 0 1 21.658308-1.773035z" p-id="14183"></path><path d="M184.682083 393.699594m-58.264667 0a58.264667 58.264667 0 1 0 116.529335 0 58.264667 58.264667 0 1 0-116.529335 0Z" p-id="14184"></path><path d="M184.682083 607.52765m-58.264667 0a58.264667 58.264667 0 1 0 116.529335 0 58.264667 58.264667 0 1 0-116.529335 0Z" p-id="14185"></path><path d="M184.682083 822.70594m-58.264667 0a58.264667 58.264667 0 1 0 116.529335 0 58.264667 58.264667 0 1 0-116.529335 0Z" p-id="14186"></path><path d="M351.374678 517.334709m-58.264668 0a58.264667 58.264667 0 1 0 116.529335 0 58.264667 58.264667 0 1 0-116.529335 0Z" p-id="14187"></path><path d="M347.651304 330.934145m-58.264668 0a58.264667 58.264667 0 1 0 116.529335 0 58.264667 58.264667 0 1 0-116.529335 0Z" p-id="14188"></path><path d="M349.51981 720.088113m-58.264667 0a58.264667 58.264667 0 1 0 116.529334 0 58.264667 58.264667 0 1 0-116.529334 0Z" p-id="14189"></path><path d="M353.243184 894.213817m-58.264667 0a58.264667 58.264667 0 1 0 116.529334 0 58.264667 58.264667 0 1 0-116.529334 0Z" p-id="14190"></path><path d="M546.135785 388.639624m-58.264668 0a58.264667 58.264667 0 1 0 116.529335 0 58.264667 58.264667 0 1 0-116.529335 0Z" p-id="14191"></path><path d="M546.135785 602.46768m-58.264668 0a58.264667 58.264667 0 1 0 116.529335 0 58.264667 58.264667 0 1 0-116.529335 0Z" p-id="14192"></path><path d="M546.135785 817.659609m-58.264668 0a58.264667 58.264667 0 1 0 116.529335 0 58.264667 58.264667 0 1 0-116.529335 0Z" p-id="14193"></path><path d="M712.828379 512.274739m-58.264667 0a58.264667 58.264667 0 1 0 116.529334 0 58.264667 58.264667 0 1 0-116.529334 0Z" p-id="14194"></path><path d="M709.105005 325.887814m-58.264667 0a58.264667 58.264667 0 1 0 116.529334 0 58.264667 58.264667 0 1 0-116.529334 0Z" p-id="14195"></path><path d="M710.959873 715.041782m-58.264668 0a58.264667 58.264667 0 1 0 116.529335 0 58.264667 58.264667 0 1 0-116.529335 0Z" p-id="14196"></path><path d="M714.683247 889.167486m-58.264667 0a58.264667 58.264667 0 1 0 116.529334 0 58.264667 58.264667 0 1 0-116.529334 0Z" p-id="14197"></path></svg>