<?xml version="1.0" standalone="no"?><!DOCTYPE svg PUBLIC "-//W3C//DTD SVG 1.1//EN" "http://www.w3.org/Graphics/SVG/1.1/DTD/svg11.dtd"><svg t="1625548613991" class="icon" viewBox="0 0 1024 1024" version="1.1" xmlns="http://www.w3.org/2000/svg" p-id="20118" xmlns:xlink="http://www.w3.org/1999/xlink" width="200" height="200"><defs><style type="text/css"></style></defs><path d="M873.863379 1024H149.511052A149.283572 149.283572 0 0 1 0.17061 874.773298V149.624792A149.283572 149.283572 0 0 1 149.397312 0.39809h724.466067a149.283572 149.283572 0 0 1 149.226702 149.226702v725.148506a149.283572 149.283572 0 0 1-149.226702 149.226702z m77.854937-146.212596V146.610685a73.191603 73.191603 0 0 0-73.134733-73.077863H147.122515a73.191603 73.191603 0 0 0-73.134733 73.077863v731.176719a73.191603 73.191603 0 0 0 73.134733 73.077863h731.461068a73.191603 73.191603 0 0 0 73.134733-73.077863zM257.450183 330.584916H256.085305a35.998667 35.998667 0 0 1-35.998667-35.998667v-1.194269a35.941797 35.941797 0 0 1 35.998667-35.941797h1.137399a35.998667 35.998667 0 0 1 35.998667 35.941797v1.194269a35.998667 35.998667 0 0 1-35.998667 35.998667z m511.431301 0H403.15095a36.567366 36.567366 0 0 1 0-73.134733h365.730534a36.567366 36.567366 0 0 1 0 73.134733zM257.450183 551.069643H256.085305a35.941797 35.941797 0 0 1-35.998667-35.998667v-1.194268A35.941797 35.941797 0 0 1 256.085305 477.707431h1.137399a35.998667 35.998667 0 0 1 35.998667 35.941797v1.194269a35.998667 35.998667 0 0 1-35.998667 35.998667z m511.431301 0H403.15095a36.567366 36.567366 0 0 1 0-73.134732h365.730534a36.567366 36.567366 0 0 1 0 73.134732z m-511.431301 216.105743H256.085305a35.941797 35.941797 0 0 1-35.998667-35.941797v-1.194269A35.998667 35.998667 0 0 1 256.085305 693.813173h1.137399a35.998667 35.998667 0 0 1 35.998667 35.998667v1.194269a35.998667 35.998667 0 0 1-35.998667 35.941797z m511.431301 0H403.15095a36.567366 36.567366 0 0 1 0-73.134733h365.730534a36.567366 36.567366 0 0 1 0 73.134733z m0 0" p-id="20119"></path></svg>