<?xml version="1.0" standalone="no"?><!DOCTYPE svg PUBLIC "-//W3C//DTD SVG 1.1//EN" "http://www.w3.org/Graphics/SVG/1.1/DTD/svg11.dtd"><svg t="1628573742384" class="icon" viewBox="0 0 1024 1024" version="1.1" xmlns="http://www.w3.org/2000/svg" p-id="6175" xmlns:xlink="http://www.w3.org/1999/xlink" width="200" height="200"><defs><style type="text/css"></style></defs><path d="M514.56 921.8048c-170.9056 0-308.4288-164.0448-308.4288-299.8272l0-6.144c0-146.5344 83.6608-280.9856 100.4544-306.4832l24.576-37.376 12.1856 43.008c10.6496 37.6832 36.864 100.864 92.0576 100.864 44.2368 0 91.8528-66.9696 91.8528-214.016 0-18.5344 0.7168-80.1792 10.1376-92.0576l22.2208-27.9552 12.9024 33.28c0.1024 0.3072 11.264 28.5696 44.1344 70.5536 72.0896 92.2624 206.336 263.9872 206.336 417.5872l-0.3072 8.4992 0.3072 10.0352C822.9888 757.8624 685.4656 921.8048 514.56 921.8048zM319.1808 368.128c-27.9552 51.2-72.192 147.8656-72.192 247.7056l0.1024 1.536 0 3.584C246.9888 739.328 366.3872 880.8448 514.56 880.8448S782.0288 739.328 782.0288 621.9776l0-18.5344c0-139.5712-128.6144-304.0256-197.632-392.3968-5.9392-7.5776-11.264-14.848-15.9744-21.6064-0.1024 4.5056-0.2048 8.704-0.2048 12.4928 0 154.8288-52.1216 254.976-132.8128 254.976C386.3552 456.9088 345.3952 425.0624 319.1808 368.128z" p-id="6176" fill="#ffffff"></path></svg>
