<?xml version="1.0" standalone="no"?><!DOCTYPE svg PUBLIC "-//W3C//DTD SVG 1.1//EN" "http://www.w3.org/Graphics/SVG/1.1/DTD/svg11.dtd"><svg t="1628652977326" class="icon" viewBox="0 0 1024 1024" version="1.1" xmlns="http://www.w3.org/2000/svg" p-id="4287" xmlns:xlink="http://www.w3.org/1999/xlink" width="200" height="200"><defs><style type="text/css"></style></defs><path d="M512 128C264.576 128 64 328.576 64 576v224c0 52.8 43.2 96 96 96h32c52.8 0 96-43.2 96-96V672c0-52.8-43.2-96-96-96h-32a95.132 95.132 0 0 0-31.943 5.504c-0.026-1.833-0.057-3.665-0.057-5.504 0-212.077 171.923-384 384-384s384 171.923 384 384c0 1.839-0.031 3.671-0.057 5.504A95.132 95.132 0 0 0 864 576h-32c-52.8 0-96 43.2-96 96v128c0 52.8 43.2 96 96 96h32c52.8 0 96-43.2 96-96V576c0-247.424-200.576-448-448-448zM160 640h32c17.6 0 32 14.4 32 32v128c0 17.6-14.4 32-32 32h-32c-17.6 0-32-14.4-32-32V672c0-17.6 14.4-32 32-32z m736 160c0 17.6-14.4 32-32 32h-32c-17.6 0-32-14.4-32-32V672c0-17.6 14.4-32 32-32h32c17.6 0 32 14.4 32 32v128z" p-id="4288" fill="#ffffff"></path></svg>