<?xml version="1.0" standalone="no"?><!DOCTYPE svg PUBLIC "-//W3C//DTD SVG 1.1//EN" "http://www.w3.org/Graphics/SVG/1.1/DTD/svg11.dtd"><svg t="1625541398004" class="icon" viewBox="0 0 1025 1024" version="1.1" xmlns="http://www.w3.org/2000/svg" p-id="9465" xmlns:xlink="http://www.w3.org/1999/xlink" width="200.1953125" height="200"><defs><style type="text/css"></style></defs><path d="M978.488889 159.288889c-5.688889-91.022222-79.644444-159.288889-170.666667-159.288889H227.555556C136.533333 0 62.577778 68.266667 56.888889 159.288889l-45.511111 682.666667c0 45.511111 17.066667 91.022222 45.511111 125.155555 34.133333 34.133333 79.644444 56.888889 125.155555 56.888889H853.333333c45.511111 0 91.022222-17.066667 125.155556-56.888889 34.133333-34.133333 51.2-79.644444 45.511111-125.155555l-45.511111-682.666667z m-85.333333 733.866667c-11.377778 11.377778-22.755556 17.066667-39.822223 17.066666H187.733333c-17.066667 0-28.444444-5.688889-39.822222-17.066666-11.377778-11.377778-17.066667-28.444444-17.066667-39.822223L170.666667 164.977778c0-28.444444 28.444444-51.2 56.888889-51.2h580.266666c28.444444 0 56.888889 22.755556 56.888889 51.2l45.511111 682.666666c0 17.066667-5.688889 34.133333-17.066666 45.511112z" p-id="9466"></path><path d="M802.133333 227.555556c0 28.444444-28.444444 56.888889-56.888889 56.888888H739.555556c-28.444444 96.711111-113.777778 170.666667-221.866667 170.666667-102.4 0-193.422222-73.955556-216.177778-170.666667h-11.377778c-28.444444 0-56.888889-28.444444-56.888889-56.888888s28.444444-56.888889 56.888889-56.888889h56.888889c28.444444 0 56.888889 28.444444 56.888889 56.888889 0 62.577778 51.2 113.777778 113.777778 113.777777s113.777778-51.2 113.777778-113.777777c0-28.444444 28.444444-56.888889 56.888889-56.888889h56.888888c34.133333 0 56.888889 28.444444 56.888889 56.888889z" p-id="9467"></path></svg>