<?xml version="1.0" standalone="no"?><!DOCTYPE svg PUBLIC "-//W3C//DTD SVG 1.1//EN" "http://www.w3.org/Graphics/SVG/1.1/DTD/svg11.dtd"><svg t="1625540659712" class="icon" viewBox="0 0 1024 1024" version="1.1" xmlns="http://www.w3.org/2000/svg" p-id="3832" xmlns:xlink="http://www.w3.org/1999/xlink" width="200" height="200"><defs><style type="text/css"></style></defs><path d="M495.955 995.055l-3.225-18.722c0.505 6.468 1.691 12.586 3.225 18.722zM713.856 88.046c-53.447 0-97.376 45.794-97.376 101.803 0 27.578 10.564 53.273 28.937 72.518 15.497 29.268 16.86 43.406 16.86 45.62-6.122 25.538 11.24 38.473 13.28 39.832 0.854 0.506 11.749 8.507 33.539 8.507 12.586 0 27.055-2.719 41.192-8.001l1.029-0.157 0.157-0.174c0.174-0.174 19.58-13.458 13.109-40.007 0.349-2.214 1.534-16.003 16.351-44.26 19.057-19.071 30.123-45.968 30.123-73.877 0-56.01-43.405-101.804-97.201-101.804z m0 163.077c-30.82 0-56.864-20.762-64.011-49.368-1.534-5.439-2.385-10.895-2.385-16.508 0-36.782 29.788-66.225 66.396-66.225 32.511 0 59.583 23.498 65.042 54.127 0.677 4.097 1.008 7.844 1.008 12.098 0 36.433-29.791 65.876-66.05 65.876zM722.363 415.577l17.537-14.469 3.574-33.539-3.225 1.011s-12.252 4.097-27.578 4.097c-9.03 0-17.711-1.36-25.712-4.097l-2.542-1.011 2.036 34.045 16.334 13.963h19.576zM557.926 208.223c0-4.759 0.68-9.012 1.36-13.614h-38.473v27.072h38.473c-0.68-4.603-1.36-9.031-1.36-13.458zM868.427 194.608c0.174 4.602 1.36 8.855 1.36 13.614 0 4.428-1.185 8.855-1.36 13.458H906.9v-27.072h-38.473zM736.5 54.506V10.577h-27.403v42.046c1.865 0 3.051-0.506 4.759-0.506 7.496 0.001 15.323 1.535 22.644 2.389zM611.725 91.271l-29.286-29.112-18.9 18.896 29.617 29.617c5.788-6.972 11.924-13.44 18.569-19.401zM813.62 89.231c6.799 5.962 13.44 12.08 18.896 19.245l27.403-27.421-19.245-19.053-27.054 27.229z" p-id="3833"></path><path d="M781.266 879.463c-0.331-102.309-54.807-142.316-132.275-158.318-70.304-14.817-132.955-17.362-107.748-110.99 33.7-24.51 41.698-75.586 83.238-92.442 3.068-25.538 1.712-41.192 0-67.584-2.719-9.867-19.071-5.613-21.79-15.497-2.388-52.418 17.537-129.032-18.391-153.891-5.787-4.079-11.732-4.933-17.362-4.933-6.973 0-13.611 1.203-20.758 1.203-4.605 0-9.713-0.697-14.141-2.737-20.082-7.478-21.267-34.045-43.232-36.764h-18.391c-30.977 21.11-67.915 17.362-99.415 26.218-2.04 0.68-3.748 0.68-5.282 1.36-18.548 6.119-29.945 17.362-37.441 32.005-10.393 19.907-11.927 46.98-12.258 77.625 0 17.711 0.506 37.113 0.506 56.864-16.177 8.507-22.121 26.044-22.801 43.911-0.349 10.564 1.185 21.616 4.079 30.994 5.613 16.683 21.11 21.267 34.219 36.939 14.8 18.722 25.193 43.737 38.978 57.7 4.428 5.108 9.884 8.681 16.177 10.215v60.611c-4.428 6.799-10.215 12.255-16.177 17.362-57.54 48.514-174.321 27.578-211.765 99.415-11.575 22.139-8.176 51.076-15.148 86.481v10.216h0.157c3.242 42.221 69.798 78.305 167 97.55 0.523-0.349 0.854-0.523 1.708-0.854 44.766 8.856 95.514 13.789 149.811 13.789 11.073 0 22.296-0.174 33.191-0.854-1.534-6.136-2.719-12.255-3.225-18.722l3.225 18.722s185.565-8.856 232.544-50.902c22.976-12.603 39.153-26.898 47.154-42.046 3.071-5.787 5.282-11.924 5.613-17.711h0.349c0-1.011-0.349-1.865-0.349-2.719 0 0 0.349-0.349 0.349-0.68 0-0.351-0.349-0.856-0.349-1.536zM744.327 180.139h-23.324v-23.324c0-2.719-1.691-4.253-3.905-4.253h-7.321c-2.04 0-4.093 1.534-4.093 4.253v23.324h-22.979c-2.563 0-4.602 1.534-4.602 3.905v7.321c0 2.214 2.04 3.922 4.602 3.922h22.979v23.498c0 2.214 2.054 4.079 4.093 4.079h7.321c2.214 0 3.905-1.865 3.905-4.079v-23.498h23.324c2.214 0 4.428-1.708 4.428-3.922v-7.321c0-2.371-2.214-3.905-4.428-3.905z" p-id="3834"></path></svg>