<?xml version="1.0" standalone="no"?><!DOCTYPE svg PUBLIC "-//W3C//DTD SVG 1.1//EN" "http://www.w3.org/Graphics/SVG/1.1/DTD/svg11.dtd"><svg t="1635849559893" class="icon" viewBox="0 0 1024 1024" version="1.1" xmlns="http://www.w3.org/2000/svg" p-id="3273" xmlns:xlink="http://www.w3.org/1999/xlink" width="200" height="200"><defs><style type="text/css">@font-face { font-family: element-icons; src: url("chrome-extension://moombeodfomdpjnpocobemoiaemednkg/fonts/element-icons.woff") format("woff"), url("chrome-extension://moombeodfomdpjnpocobemoiaemednkg/fonts/element-icons.ttf ") format("truetype"); }
</style></defs><path d="M512 1024a512 512 0 1 1 512-512 512 512 0 0 1-512 512zM512 128a384 384 0 1 0 384 384 384 384 0 0 0-384-384z m210.56 429.248L640 474.496l-19.2 19.2A187.328 187.328 0 0 1 640 576a193.472 193.472 0 1 1-109.44-172.8l128-128.448 90.88 90.496-19.2 18.752 83.2 82.752zM448 512a64 64 0 1 0 64 64 64 64 0 0 0-64-64z" p-id="3274" fill="#ffffff"></path></svg>