<?xml version="1.0" standalone="no"?><!DOCTYPE svg PUBLIC "-//W3C//DTD SVG 1.1//EN" "http://www.w3.org/Graphics/SVG/1.1/DTD/svg11.dtd"><svg t="1601348070187" class="icon" viewBox="0 0 1048 1024" version="1.1" xmlns="http://www.w3.org/2000/svg" p-id="3595" xmlns:xlink="http://www.w3.org/1999/xlink" width="204.6875" height="200"><defs><style type="text/css"></style></defs><path d="M843.01 181.096H467.115c-69.377 0-126.14 56.762-126.14 126.139V835.02c0 69.377 56.763 126.14 126.14 126.14h375.893c69.376 0 126.139-56.763 126.139-126.14V307.235c0-69.377-56.763-126.139-126.139-126.139z m-437.492 64.541c16.503-16.503 38.367-25.648 61.598-25.648h375.893c23.126 0 44.99 9.145 61.598 25.648s25.648 38.367 25.648 61.598v59.39c-167.764 106.377-382.831 106.272-550.49 0v-59.39c0.105-23.126 9.25-44.99 25.753-61.598z m499.089 650.981c-16.503 16.503-38.367 25.648-61.598 25.648H467.116c-23.126 0-44.99-9.145-61.598-25.648s-25.648-38.367-25.648-61.598V412.14c85.038 48.774 180.063 73.16 275.192 73.16 95.025 0 190.155-24.386 275.193-73.265v422.88c0 23.23-9.04 45.095-25.648 61.703z" fill="#FFFFFF" p-id="3596"></path><path d="M718.027 565.82l-40.89 75.262c-10.932 20.392-17.555 33.952-19.972 40.68h-0.736c-7.148-16.293-27.435-54.976-60.862-115.943H557.2l71.373 122.67h-58.55v27.12h68.641v37.316h-68.64v27.435h68.64v54.345h34.058V780.36h66.223v-27.435h-66.223v-37.316h66.223v-27.12h-56.763l72.11-122.67h-36.265zM297.774 832.181l-142.326-390.82c30.799 5.361 61.703 7.884 92.502 7.884 20.602 0 41.1-1.156 61.492-3.469V406.57c-55.711 6.833-112.894 4.415-169.446-7.884l-19.552-53.819c-7.883-21.759-6.832-45.41 3.049-66.643 9.88-21.234 27.33-37.211 49.089-45.2l346.25-126.034c9.566-3.468 19.447-5.255 29.538-5.255 33.217 0 63.49 18.815 78.206 47.827h42.046l-1.366-3.784C648.65 94.691 599.982 62.841 548.37 62.841a124.106 124.106 0 0 0-42.782 7.568L159.232 196.443C94.06 220.199 60.108 292.939 83.864 358.11l177.33 487.316c12.93 35.424 40.26 61.598 73.055 74.317-12.193-19.026-20.287-40.68-23.44-64.016-5.466-7.043-9.986-14.926-13.035-23.546z" fill="#FFFFFF" p-id="3597"></path></svg>