<?xml version="1.0" standalone="no"?><!DOCTYPE svg PUBLIC "-//W3C//DTD SVG 1.1//EN" "http://www.w3.org/Graphics/SVG/1.1/DTD/svg11.dtd"><svg t="1625548565894" class="icon" viewBox="0 0 1024 1024" version="1.1" xmlns="http://www.w3.org/2000/svg" p-id="19250" xmlns:xlink="http://www.w3.org/1999/xlink" width="200" height="200"><defs><style type="text/css"></style></defs><path d="M930.909091 907.636364H139.636364V116.363636h791.272727v791.272728zM186.181818 861.090909h698.181818V162.909091H186.181818v698.181818z" fill="#424752" p-id="19251"></path><path d="M651.636364 46.545455h46.545454v186.181818h-46.545454zM372.363636 46.545455h46.545455v186.181818h-46.545455z" fill="#424752" p-id="19252"></path><path d="M344.436364 572.509091l-20.945455-39.563636c79.127273-25.6 146.618182-58.181818 200.145455-97.745455h27.927272c58.181818 41.890909 123.345455 74.472727 200.145455 97.745455l-20.945455 39.563636c-25.6-9.309091-48.872727-18.618182-69.818181-27.927273v32.581818H414.254545v-32.581818l-69.818181 27.927273z m18.618181-111.709091l-37.236363-23.272727c27.927273-37.236364 48.872727-74.472727 60.509091-116.363637l41.890909 9.309091c-2.327273 9.309091-6.981818 18.618182-9.309091 27.927273h116.363636v39.563636h-58.181818c6.981818 13.963636 11.636364 27.927273 16.290909 39.563637l-39.563636 13.963636c-4.654545-18.618182-11.636364-37.236364-18.618182-53.527273h-30.254545c-16.290909 23.272727-27.927273 44.218182-41.89091 62.836364z m318.836364 141.963636c-11.636364 34.909091-25.6 67.490909-39.563636 95.418182h93.090909v41.890909h-395.636364V698.181818h256c16.290909-30.254545 30.254545-67.490909 44.218182-109.381818l41.890909 13.963636z m-218.763636 79.127273l-39.563637 9.309091c-9.309091-27.927273-20.945455-55.854545-34.909091-83.781818l39.563637-13.963637c11.636364 25.6 23.272727 55.854545 34.909091 88.436364z m72.145454-209.454545c-30.254545 23.272727-67.490909 46.545455-109.381818 67.490909h218.763636c-41.890909-20.945455-76.8-41.890909-109.381818-67.490909z m27.927273 204.8l-39.563636 9.309091c-6.981818-30.254545-18.618182-60.509091-30.254546-88.436364l41.890909-13.963636c9.309091 27.927273 18.618182 58.181818 27.927273 93.090909z m6.981818-237.381819l-37.236363-23.272727c20.945455-30.254545 37.236364-62.836364 46.545454-95.418182l41.890909 9.309091c-2.327273 9.309091-6.981818 18.618182-9.309091 27.927273H744.727273v39.563636h-65.163637c9.309091 16.290909 16.290909 30.254545 20.945455 44.218182l-39.563636 16.290909c-6.981818-20.945455-16.290909-39.563636-25.6-58.181818h-37.236364c-9.309091 11.636364-18.618182 27.927273-27.927273 39.563636z" fill="#424752" p-id="19253"></path></svg>