<?xml version="1.0" standalone="no"?><!DOCTYPE svg PUBLIC "-//W3C//DTD SVG 1.1//EN" "http://www.w3.org/Graphics/SVG/1.1/DTD/svg11.dtd"><svg t="1603879829363" class="icon" viewBox="0 0 1024 1024" version="1.1" xmlns="http://www.w3.org/2000/svg" p-id="7932" data-spm-anchor-id="a313x.7781069.0.i7" xmlns:xlink="http://www.w3.org/1999/xlink" width="64" height="64"><defs><style type="text/css">@font-face { font-family: element-icons; src: url("chrome-extension://moombeodfomdpjnpocobemoiaemednkg/fonts/element-icons.woff") format("woff"), url("chrome-extension://moombeodfomdpjnpocobemoiaemednkg/fonts/element-icons.ttf ") format("truetype"); }
</style></defs><path d="M251.52 646.4512c0 28.16 22.1696 44.9536 49.2544 37.2224l32.64-9.216c27.1104-7.7056 31.8208-29.056 10.5216-47.4624l-53.7088-46.4128c-21.2992-18.432-38.7328-10.3936-38.7328 17.7152l0.0256 48.1536z" fill="#FF3366" p-id="7933"></path><path d="M556.6976 50.6112c-24.5504-13.7472-64.7936-13.7472-89.3696 0L121.5232 243.84C96.9216 257.5872 76.8 291.8656 76.8 320.0256V704c0 28.16 20.1216 62.4384 44.6976 76.2112l345.7792 193.2544c24.576 13.696 64.8192 13.696 89.3952 0l345.8048-193.2544c24.6272-13.7728 44.7232-48 44.7232-76.16V320.0768c0-28.16-20.096-62.4384-44.6976-76.1856l-345.8048-193.28zM173.9776 750.8992c-24.576-13.7472-44.6976-48.0512-44.6976-76.2112V381.9264c0-28.16 20.1216-39.9616 44.6976-26.2144l267.1104 149.248c24.576 13.7472 44.6976 48 44.7232 76.1856l0.0256 292.8128c0 28.16-20.096 40.0128-44.6976 26.24L173.9776 750.8992z m23.3216-440.832c-24.576-13.7472-24.576-36.224 0-49.9456l270.0288-150.8864c24.576-13.7472 64.8192-13.7472 89.3696 0l269.952 150.8864c24.5504 13.7472 24.5504 36.224 0 49.9712l-269.9008 150.8608c-24.576 13.7472-64.8192 13.7472-89.3952 0L197.2992 310.0672z m697.4464 364.6208c0 28.16-20.096 62.4384-44.6976 76.2112L582.9888 900.096c-24.6016 13.696-44.6976 1.8944-44.6976-26.1888l-0.0512-292.8128c0-28.16 20.1472-62.4128 44.6976-76.16l267.1104-149.2992c24.6016-13.7472 44.6976-1.9456 44.6976 26.2144v292.8384z" fill="#ffffff" p-id="7934" data-spm-anchor-id="a313x.7781069.0.i0" class="selected"></path></svg>