<?xml version="1.0" standalone="no"?><!DOCTYPE svg PUBLIC "-//W3C//DTD SVG 1.1//EN" "http://www.w3.org/Graphics/SVG/1.1/DTD/svg11.dtd"><svg t="1625541125787" class="icon" viewBox="0 0 1024 1024" version="1.1" xmlns="http://www.w3.org/2000/svg" p-id="7634" xmlns:xlink="http://www.w3.org/1999/xlink" width="200" height="200"><defs><style type="text/css"></style></defs><path d="M920.5 710.4c-31.6 0-51.4-34.2-35.6-61.6 11.3-19.6 4.6-44.8-15-56.1l-55.1-31.8c-19.6-11.3-44.8-4.6-56.1 15-15.8 27.4-55.3 27.4-71.1 0-11.3-19.6-36.5-26.4-56.1-15l-55.1 31.8c-19.6 11.3-26.4 36.5-15 56.1 15.8 27.4-3.9 61.6-35.6 61.6-22.7 0-41.1 18.4-41.1 41.1v63.6c0 22.7 18.4 41.1 41.1 41.1 31.6 0 51.4 34.2 35.6 61.6-11.3 19.6-4.6 44.8 15 56.1l55.1 31.8c19.6 11.3 44.8 4.6 56.1-15 15.8-27.4 55.3-27.4 71.1 0 11.3 19.6 36.5 26.4 56.1 15l55.1-31.8c19.6-11.3 26.4-36.5 15-56.1-15.8-27.4 3.9-61.6 35.6-61.6 22.7 0 41.1-18.4 41.1-41.1v-63.6c0-22.7-18.4-41.1-41.1-41.1zM767.1 859.5c-42.1 24.3-95.9 9.9-120.2-32.2-24.3-42.1-9.9-95.9 32.2-120.2 42.1-24.3 95.9-9.9 120.2 32.2 24.3 42.1 9.9 95.9-32.2 120.2zM247.2 213.2h475v70.4h-475v-70.4z m0 182.9h475v70.4h-475v-70.4z m0 186.2h263.9v70.4H247.2v-70.4z" p-id="7635"></path><path d="M836.6 12.8H132.8c-38.8 0-70.4 31.6-70.4 70.4v809.3c0 38.8 31.6 70.4 70.4 70.4H441c19.4 0 35.2-15.8 35.2-35.2 0-19.4-15.8-35.2-35.2-35.2H132.8V83.1h703.8v383.3c0 19.4 15.8 35.2 35.2 35.2 19.4 0 35.2-15.8 35.2-35.2V83.1c-0.1-38.8-31.6-70.3-70.4-70.3z" p-id="7636"></path></svg>