<?xml version="1.0" standalone="no"?><!DOCTYPE svg PUBLIC "-//W3C//DTD SVG 1.1//EN" "http://www.w3.org/Graphics/SVG/1.1/DTD/svg11.dtd"><svg t="1625540972429" class="icon" viewBox="0 0 1024 1024" version="1.1" xmlns="http://www.w3.org/2000/svg" p-id="6590" xmlns:xlink="http://www.w3.org/1999/xlink" width="200" height="200"><defs><style type="text/css"></style></defs><path d="M472.436364 631.156364a34.909091 34.909091 0 0 0 0-69.818182C266.705455 561.338182 139.636364 491.054545 139.636364 440.785455v-72.843637c70.981818 49.338182 190.836364 80.523636 332.101818 80.523637s260.887273-31.185455 332.101818-80.523637v72.843637a34.909091 34.909091 0 1 0 69.818182 0v-164.305455a46.545455 46.545455 0 0 0 0-8.145455v-10.472727c0-108.450909-172.683636-190.370909-401.92-190.370909C257.396364 67.490909 93.090909 139.636364 72.378182 238.08a35.141818 35.141818 0 0 0-1.861818 11.170909v516.887273c0 108.450909 172.683636 190.370909 401.92 190.370909a34.909091 34.909091 0 1 0 0-69.818182C266.705455 886.690909 139.636364 816.407273 139.636364 766.138182V707.490909c56.32 39.098182 144.058182 66.792727 251.578181 76.567273 11.403636 1.163636 23.272727 1.861818 34.676364 2.56h1.861818a34.909091 34.909091 0 0 0 1.629091-69.818182c-10.705455 0-21.410909-1.163636-31.883636-2.094545C238.778182 700.043636 139.636364 642.327273 139.636364 597.178182v-46.545455c71.68 49.338182 191.534545 80.523636 332.8 80.523637z m0-493.847273c205.730909 0 332.101818 69.818182 332.101818 120.552727s-126.370909 120.785455-332.101818 120.785455S139.636364 308.363636 139.636364 257.861818 266.705455 137.309091 472.436364 137.309091z" p-id="6591"></path><path d="M946.734545 787.316364l-74.472727-128.930909a28.858182 28.858182 0 0 0-25.134545-14.429091H698.181818a28.858182 28.858182 0 0 0-25.134545 14.429091l-74.472728 128.930909a29.556364 29.556364 0 0 0 0 29.090909l74.472728 128.930909a29.323636 29.323636 0 0 0 25.134545 14.429091h148.945455a29.323636 29.323636 0 0 0 25.134545-14.429091l74.472727-128.930909a29.556364 29.556364 0 0 0 0-29.090909z m-116.363636 114.269091h-116.363636l-57.483637-99.84 57.483637-99.607273h116.363636l57.483636 99.607273z" p-id="6592"></path><path d="M772.654545 729.134545a72.843636 72.843636 0 1 0 72.843637 72.61091 72.843636 72.843636 0 0 0-72.843637-72.61091z m0 87.272728a14.661818 14.661818 0 1 1 14.661819-14.661818 14.661818 14.661818 0 0 1-14.661819 14.661818z" p-id="6593"></path></svg>