<svg viewBox="0 0 264.7 128.6" xmlns="http://www.w3.org/2000/svg" xmlns:xlink="http://www.w3.org/1999/xlink" id="图层_1" overflow="hidden"><g><g id="图层_1-2"><path d="M172.8 128.6C172.7 128.2 172.4 128.3 172.1 128.2 167.7 127 165.4 124 164.7 119.6 164 114.8 166.1 110.2 170.2 108.5 174.3 106.8 178.3 106.8 182 109.5 183 110.3 183.8 111.5 184.2 112.7 184.4 113.4 184.2 113.6 183.6 113.6 183.2 113.6 182.8 113.7 182.4 113.8 181 114.1 180.1 114.1 179.1 112.7 177 109.6 171.1 110.8 169.7 114.4 168.8 116.7 168.9 119.2 169.8 121.4 170.9 124.1 173.8 125.6 176.6 124.8 177.4 124.6 178.1 124.4 178.9 124 180.3 123.3 180.6 122.7 180.3 121.1 180.2 120.5 179.8 120.7 179.5 120.7 178.4 120.7 177.3 120.7 176.1 120.7 175.6 120.7 175.2 120.6 175.3 120 175.3 119.9 175.3 119.8 175.3 119.8 175.2 117.3 175.2 117.3 177.7 117.3 179.7 117.3 181.8 117.3 183.8 117.3 184.4 117.3 184.6 117.5 184.6 118.1 184.6 120.3 184.6 122.6 184.6 124.8 184.6 125.3 184.3 125.8 183.8 126 182.1 127.1 180.3 127.9 178.3 128.3 178.1 128.3 177.8 128.2 177.7 128.6L172.8 128.6Z" fill="#595656"/><path d="M108.5 128.6C108.5 125.8 108.5 123.1 108.5 120.3 108.5 119.8 108.3 119.3 108 118.9L100.7 107.5C102.5 107.5 104 107.5 105.6 107.5 106.1 107.5 106.2 108 106.4 108.3 107.9 110.7 109.3 113.1 110.9 115.7 112.2 113.5 113.6 111.4 114.7 109.2 115.2 107.9 116.6 107.1 117.9 107.4 118.9 107.5 119.8 107.5 120.8 107.4 120.3 108.2 120 108.8 119.6 109.4 117.6 112.5 115.6 115.6 113.6 118.6 113.1 119.3 112.8 120.2 112.9 121 112.9 123.5 112.9 126 112.9 128.4L108.5 128.6Z" fill="#595656"/><path d="M83.3 24.5C83.4 25.5 83.2 26.6 83.2 27.6 83.3 30.1 81.8 31.7 79.9 33 78.8 33.9 77.5 34.5 76.1 34.8 75.5 35 74.9 34.9 74.4 34.5 74.1 34.3 73.6 34.3 73.3 34.5 71.8 35.3 70 34.7 69.2 33.3 68.8 32.7 68.4 32 68 31.4 66.4 29.1 66.6 26 68.6 23.9 69.9 22.6 71.4 21.5 73 20.7 73.1 20.7 73.2 20.6 73.3 20.6 74.6 21.1 75.2 19.9 76.1 19.4 77.6 18.5 80.8 18.7 82 20 83 21 82.9 22.2 83.2 23.3 83.3 23.7 83.3 24.1 83.3 24.5Z" fill="#EF8336"/><path d="M229.3 45.1C228.9 45.1 228.4 45.1 228 45.3 226.6 46.5 224.6 46.8 223.3 48.2 223.1 48.4 222.9 48.7 222.6 48.8 219.6 49.4 217.9 51.9 215.5 53.4 213.5 54.6 212.7 57.4 209.8 57.2 209.7 57.2 209.7 57.3 209.6 57.3 208.2 58.2 206.8 58.9 205.2 59.5 200 61.9 194.3 59.4 192.8 53.4 192.7 52.9 192.6 52.4 192.9 52 193.5 51.2 194.3 50.6 195.1 50 196.5 49.2 197.8 48.1 199.1 47.2 203.2 44.3 206.9 40.8 210.2 37 211.9 35 212.8 32.7 213.9 30.4 214.9 28.4 214.1 26.3 213.8 24.2 213.7 23.6 213.4 22.9 213 22.4 212 21.1 210.6 20.8 209.2 20.4 205.5 19.2 202.2 20.2 199.2 22.5 198.7 23.1 198.1 23.6 197.4 24.1 197 24.3 196.4 24.3 196 24.7 193.2 27 190.6 29.6 188.3 32.4 187.5 33.5 186.4 34.5 186.2 35.8 186 37.3 184.6 37.7 184.2 39 183.4 41.2 182.9 43.5 182.4 45.8 182.4 46.9 182 48 181.3 48.9 180 50.2 178.3 51.1 176.9 52.3 175.3 53.6 173.8 55 172.5 56.5 171.3 57.9 169.8 58.9 168.1 59.6 166.4 60.3 165 61.4 163.9 62.8 163 63.8 160.6 64.4 159.8 63.3 158.6 61.6 156.6 60.2 157 57.6 157 57.4 156.9 57.2 156.8 57.1 155.3 54.5 154.3 51.7 152.5 49.3 151.3 47.5 149.1 46.6 146.9 46.9 141.6 47.2 137.9 50.4 134.4 54 133.8 54.7 133.1 55.4 132.3 55.9 130.9 56.5 129.9 57.7 129.5 59.2 129.5 59.6 129.2 59.9 128.9 60.1 126.8 61.1 125.4 62.9 124.1 64.6 123.1 65.8 121.9 66.9 120.6 67.9 120.4 67.6 120.4 67.2 120.6 66.9 121.8 65.4 121.6 63.4 122.5 61.8 123.4 60.2 123.8 58.5 124.5 56.8 125.2 55.1 125.8 53.5 126.4 51.8 126.7 51 127.2 50.3 127.5 49.4 128.2 47 128.7 44.6 129.1 42.2 129.7 39.5 128.2 36.7 125.6 35.6 124.8 35.1 123.9 35 123.1 35.2 120.8 36.2 118.3 36.9 116.4 38.6 115.4 39.4 114.5 40.3 113.6 41.2 109 45.7 104.7 50.5 100.3 55.2 99 56.5 97.7 57.8 96.5 59.2 95.7 60.3 94.7 61.1 93.5 61.7 91.8 62.5 90.1 63.5 88.6 64.7 88.3 65 87.8 65.3 87.4 65.5 85.8 65.9 84.2 66.5 82.7 67.2 81.1 68 80.1 67.7 79.3 66.4 77.2 62.9 76 59 75.9 54.9 75.7 51.5 75.9 48 75.8 44.6 75.9 41.5 73.7 38.9 70.6 38.5L68 37.8C67.7 37.7 67.4 37.6 67.1 37.8 65.4 39 63.6 40.1 62.4 41.8 61.4 43.1 60.3 44.3 59.3 45.6 58.3 46.9 57 47.7 56 48.9 53.4 51.9 51 54.9 46.9 56.4 43.8 57.5 40.9 59 37.7 59.8 37.3 59.9 36.8 60 36.5 60.3 35 61.8 33 62.2 31 62.7 29.9 62.8 28.8 63.1 27.8 63.7 26.7 64.6 25.1 64.8 24 66.1 23.6 65.1 24.2 64.3 24.2 63.5 23.9 60.7 23.9 57.8 24.1 55 24.4 53.2 23.9 51.3 24.2 49.5 24.7 46.4 25.3 43.3 25.7 40.2 25.8 39.1 26.2 38.5 27.3 38.4 27.5 38.4 27.7 38.3 27.9 38.2 30.1 37.5 32.2 36.5 34.5 36 37.2 35.3 40 34.8 42.7 33.9 43.3 33.6 44 33.5 44.7 33.4 46.6 33.3 48.4 33 50.2 32.4 51.8 31.9 53.5 31.7 54.9 30.7 56.4 29.5 57.7 28 58.6 26.3 59 25.6 59 23.2 58.4 22.8 56.9 21.7 55.9 19.7 53.6 19.9 53.4 19.9 53.2 19.7 53 19.6 50 18.3 46.8 17.8 43.6 18 42.5 18.1 41.4 18.2 40.3 18.3 35.2 18.9 30.1 18.7 25.1 20.4 23 21.3 20.8 21.9 18.5 22.2 16.3 22.3 14.7 23.4 13 24.3 11.3 25.2 9.5 26 7.9 27 6.8 27.8 5.7 28.6 4.6 29.5 2.7 31 1.2 33 0.5 35.4 0.4 35.7 0.4 36.1 8.88178e-16 36.3L8.88178e-16 40.4C0.3 41.2 0.3 42.1 1.1 42.6 3.8 44.3 6.6 45.6 9.9 44.4 10.5 44.2 10.7 44.2 10.7 45 10.5 47.4 10.3 49.8 9.9 52.3 9.2 55.9 9 59.5 9.2 63.2 9.4 66.1 9.2 69 8.6 71.9 8.5 72.7 7.9 73.4 7.2 73.7 6.2 74.1 5.3 74.5 4.3 74.8 2.8 75.2 1.5 76.3 0.8 77.7-0.3 79.7 2.44249e-15 81.4 1.8 82.7 2.6 83.3 3.5 83.8 4.5 84 5.4 84.3 6.4 84.5 7.3 84.7 8.2 84.8 8.5 85.3 8.3 86.2 8.2 86.7 8.2 87.2 8.4 87.7 8.8 89.3 9 91.3 9 93.2 9.1 98.1 9.6 102.9 10.5 107.7 11.3 113 12.5 118.1 14.2 123.2 14.5 124.4 14.9 125.5 15.4 126.6 15.7 127.7 16.7 128.5 17.9 128.6 18.3 128.6 18.7 128.6 19.1 128.5 19.5 128.5 19.8 128.2 19.8 127.8 20.2 126.2 20.4 124.6 20.6 123 20.6 121 20.8 119.1 21 117.1 21.1 116.3 21.1 115.5 21.1 114.7 21.1 113.2 20.6 111.8 21 110.4 21.1 109.7 21.2 109 21.2 108.3 21.5 106.2 20.6 104.2 20.9 102.2 21 101 21.6 99.9 20.8 98.8 20.7 98.6 20.8 98.3 20.9 98 21.7 95.2 21.7 92.3 21.1 89.4 21 89.1 21 88.8 21.2 88.5 22 86.7 21.7 84.7 21.8 82.8 21.7 81.8 22.3 80.8 23.3 80.4 26.5 78.9 29.6 77.2 32.6 75.3 33.5 74.8 34.3 74.1 35 73.3 35.6 72.6 36.3 72 37.2 71.7 40.1 70.4 42.3 68.2 44.5 66 46.9 63.7 48.8 60.8 51.7 58.9 54.1 57.3 56.3 55.7 59.4 55.7 59.6 55.7 59.8 55.6 60 55.5 61 54.9 61.6 55.3 62 56.3 63.1 58.9 64.6 61.3 64.9 64.3 65 64.6 65 64.9 65.1 65.2 65.3 66.5 66.2 67.6 66.6 68.8 67.1 70.2 67.6 71.5 68.3 72.8 69.7 75.4 74.6 77.2 77.6 76.2 79.7 75.6 81.7 74.7 83.4 73.5 87.6 70.3 92.2 67.5 96.1 63.8 98.1 62.1 100.3 60.8 102.8 59.9 104.4 59.2 106 58.3 107.5 57.3 108.3 56.7 109.2 56.2 110 55.7 110.7 55.3 111.5 55.1 112.3 55.2 112.9 55.2 113.3 55.6 113.3 56.2 113.3 56.3 113.3 56.4 113.3 56.4 113.1 58.6 112.1 60.6 111.6 62.8 111.1 65 110.1 67 109.6 69.2 108.6 73.6 106.1 77.7 106.5 82.5 106.6 84.2 107 85.1 108.6 85.2 111.7 85.5 114.5 84.8 116.6 82.3 116.9 81.9 117.2 81.6 117.6 81.3 121.5 77.5 125.7 73.8 128.9 69.3 129.1 69 129.4 68.8 129.7 68.7 131.2 68.1 132.5 67 133.3 65.7 133.5 65.3 133.7 64.9 134.2 64.8 135.2 64.5 136.1 64 136.8 63.2 137.7 62.4 138.7 61.8 139.8 61.2 140.9 60.5 142.4 60.9 143.1 62 144.2 63.4 145.4 64.6 146.7 65.8 147 66 147.3 66.2 147.3 66.6 147.6 69.2 149.2 71.1 150.8 73 151.9 74.3 153.3 75.3 155 75.7 157.9 76.3 160.3 74.8 162.6 73.5 164 72.6 165.3 71.6 166.4 70.3 167.5 69.1 168.9 68.2 170 67 173.2 63.7 176.4 60.5 180.4 58.3 180.7 58.1 181 57.8 181.5 57.8 181.5 57.9 181.6 58.1 181.6 58.2 182.1 62.1 184.1 65.7 187.1 68.2 188.4 69.3 190 70 191.6 70.4 193 70.7 194.4 70.8 195.9 70.9 197 71 198 70.5 199.1 70.6 201.3 70.9 203.4 70.5 205.4 69.6 208.6 68.2 211.4 66.3 213.9 63.9 214.7 63 215.7 62.3 216.6 61.6 219 60.2 221.1 58.4 223 56.4 224.3 54.8 225.8 53.3 227.3 52 228.8 50.8 230 49.2 230.8 47.3 231.2 45.7 230.7 45 229.3 45.1ZM192.4 42.9C192.5 42.2 192.8 41.5 193.2 40.9 195.4 37.5 198.2 34.6 201.5 32.3 202.5 31.5 203 31.8 203 33.4 202.6 34.8 202.3 36.5 200.7 37.7 198.9 39.1 197 40.3 195.8 42.4 195.1 43.5 193.7 43 192.7 43.5 192.4 43.6 192.3 43.2 192.4 42.9Z" fill="#EF8236"/><path d="M153.1 117.5C153 113.5 151.5 110.2 147.7 108.6 143.7 106.9 139.6 106.9 136 109.6 132.9 111.9 132.2 115.3 132.4 118.9 132.6 123.7 135.1 126.9 139.7 128.3 139.9 128.4 140.2 128.3 140.3 128.6L145.1 128.6C146.1 128.1 147.3 128 148.3 127.4 152 125.2 153.2 121.7 153.1 117.5ZM148.3 120.5C147.6 123.6 144.6 125.6 141.5 124.9 139.5 124.5 137.8 123 137.2 121 136.6 119 136.6 116.8 137.3 114.8 138.1 112.5 140.3 111 142.8 111.1 145.2 111 147.4 112.6 148.1 114.9 148.4 115.9 148.6 117 148.5 118 148.6 118.9 148.5 119.7 148.3 120.5L148.3 120.5Z" fill="#595656"/><path d="M217.1 127.9C214.8 122.2 212.4 116.4 210.1 110.7 209.7 109.7 209.5 108.3 208.7 107.7 207.9 107.1 206.5 107.6 205.3 107.5 204.4 107.4 204.1 107.8 203.7 108.6 201.1 115.3 198.4 121.9 195.8 128.6L200.6 128.6C201 127.1 201.5 125.6 202.1 124.2 202.2 123.8 202.5 123.8 202.9 123.8 205.3 123.8 207.7 123.8 210.1 123.8 210.5 123.7 211 124 211 124.5 211.5 125.9 212.1 127.2 212.6 128.6L217.4 128.6C217.3 128.4 217.2 128.1 217.1 127.9ZM204.1 120.3C203.7 120.3 203.7 120.1 203.8 119.7L206.4 112.6 209.3 120.2 204.1 120.2Z" fill="#595656"/><path d="M245 11.8C245 10.8 244.4 10.3 243 10.3 242.4 10.2 241.7 10.3 241.9 11.3 242.1 12 241.1 13.3 242.8 13.3 244.2 13.4 245 12.8 245 11.8Z" fill="#EF8236"/><path d="M251 10.6 249.6 14.5C252.7 14.9 252.7 14.9 251.7 12.2 251.5 11.8 251.3 11.3 251 10.6Z" fill="#EF8236"/><path d="M251.1 0C243.6 0 237.5 6.1 237.5 13.7 237.5 21.3 243.6 27.3 251.2 27.3 258.7 27.3 264.8 21.2 264.8 13.6 264.7 6.1 258.6 0 251.1 0 251.1 0 251.1 0 251.1 0ZM245.4 17.1C245.1 16.5 244.7 15.9 244.3 15.3 244 14.8 243.6 14.4 243 14.3 242.3 14.2 241.8 14.2 241.9 15.2 242 15.9 241.9 16.6 241.9 17.3 241.9 17.6 241.8 17.8 241.4 17.8 241 17.8 240.9 17.6 240.9 17.2 240.9 14.8 240.9 12.3 240.9 9.9 240.9 9.5 241.1 9.3 241.5 9.3 242.3 9.3 243.2 9.3 244 9.4 245 9.4 245.8 10.1 246 11 246.3 12 245.8 13.1 244.9 13.5L244.3 13.8C245.3 14.9 246.2 16.2 246.9 17.5 246.4 17.8 245.8 17.7 245.5 17.3 245.5 17.3 245.4 17.2 245.4 17.1ZM254.3 17.8C253.9 17.9 253.6 17.6 253.5 17.3 253.2 16.7 253.3 15.8 252.6 15.6 251.6 15.5 250.6 15.5 249.6 15.5 249.1 15.5 249.1 15.9 249 16.3 248.9 16.7 248.7 17.1 248.6 17.5 248.5 17.9 248.1 17.8 247.8 17.8 247.4 17.7 247.6 17.4 247.7 17.1 248.6 14.7 249.5 12.3 250.4 10 250.5 9.6 250.7 9.4 251.2 9.4 251.6 9.4 251.9 9.6 252 10 252.9 12.4 253.8 14.8 254.8 17.3 254.8 17.4 254.8 17.4 254.9 17.5 254.8 17.7 254.6 17.8 254.3 17.8ZM259.4 18C257.2 18 255.4 16.2 255.4 14 255.4 13.9 255.4 13.8 255.4 13.7 255.4 11.1 257.1 9.3 259.4 9.3 261.7 9.3 263.4 11.1 263.4 13.6 263.4 16.1 261.8 17.9 259.4 18L259.4 18Z" fill="#EF8236"/><path d="M259.5 10.1C257.7 10 256.5 11.5 256.5 13.5 256.5 15.5 257.6 16.9 259.3 17 261 17.1 262.3 15.7 262.3 13.6 262.3 11.5 261.3 10.2 259.5 10.1Z" fill="#EF8236"/></g></g></svg>